<svg version="1.1" id="Layer_1" xmlns="http://www.w3.org/2000/svg" x="0" y="0" viewBox="0 0 500 500" style="enable-background:new 0 0 500 500" xml:space="preserve"><style>.st1{fill:#1c1d21}</style><path d="M263.8 118.5H250V50.7h-67.7v13.8c0 17.6-14.3 31.9-31.9 31.9-17.6 0-31.9-14.3-31.9-31.9V50.7H50.7v67.7H36.9c-17.6.1-31.9 14.4-31.9 32s14.3 31.9 31.9 31.9h13.8V250h67.7v-13.8c0-17.6 14.3-31.9 31.9-31.9 17.6 0 31.9 14.3 31.9 31.9V250H250v-67.7h13.8c17.6 0 31.9-14.3 31.9-31.9s-14.2-31.9-31.9-31.9z" style="fill:#fddf7f"/><path d="M381.5 263.8V250h67.7v-67.7h-13.8c-17.6 0-31.9-14.3-31.9-31.9 0-17.6 14.3-31.9 31.9-31.9h13.8V50.7h-67.7V36.9c0-17.6-14.3-31.9-31.9-31.9-17.6 0-31.9 14.3-31.9 31.9v13.8H250v67.7h13.8c17.6 0 31.9 14.3 31.9 31.9 0 17.6-14.3 31.9-31.9 31.9H250V250h67.7v13.8c0 17.6 14.3 31.9 31.9 31.9 17.6 0 31.9-14.2 31.9-31.9z" style="fill:#ecf4f7"/><path d="M118.5 236.2V250H50.7v67.7h13.8c17.6 0 31.9 14.3 31.9 31.9 0 17.6-14.3 31.9-31.9 31.9H50.7v67.7h67.7V463c0 17.6 14.3 31.9 31.9 31.9 17.6 0 31.9-14.3 31.9-31.9v-13.8H250v-67.7h-13.8c-17.6 0-31.9-14.3-31.9-31.9 0-17.6 14.3-31.9 31.9-31.9H250V250h-67.7v-13.8c0-17.6-14.3-31.9-31.9-31.9-17.6 0-31.9 14.2-31.9 31.9z" style="fill:#aab1ba"/><path d="M236.2 381.5H250v67.7h67.7v-13.8c0-17.6 14.3-31.9 31.9-31.9 17.6 0 31.9 14.3 31.9 31.9v13.8h67.7v-67.7H463c17.6 0 31.9-14.3 31.9-31.9s-14.3-31.9-31.9-31.9h-13.8V250h-67.7v13.8c0 17.6-14.3 31.9-31.9 31.9-17.6 0-31.9-14.3-31.9-31.9V250H250v67.7h-13.8c-17.6 0-31.9 14.3-31.9 31.9s14.2 31.9 31.9 31.9z" style="fill:#83e1e5"/><path class="st1" d="M50.7 69c-2.8 0-5-2.2-5-5V50.7c0-2.8 2.2-5 5-5H67c2.8 0 5 2.2 5 5s-2.2 5-5 5H55.7V64c0 2.8-2.2 5-5 5zM250 255h-67.7c-2.8 0-5-2.2-5-5v-13.8c0-14.8-12.1-26.9-26.9-26.9-14.8 0-26.9 12.1-26.9 26.9V250c0 2.8-2.2 5-5 5H50.7c-2.8 0-5-2.2-5-5v-30c0-2.8 2.2-5 5-5s5 2.2 5 5v25h57.7v-8.8c0-20.3 16.6-36.9 36.9-36.9 20.3 0 36.9 16.6 36.9 36.9v8.8H245v-62.7c0-2.8 2.2-5 5-5h13.8c14.8 0 26.9-12.1 26.9-26.9 0-14.8-12.1-26.9-26.9-26.9H250c-2.8 0-5-2.2-5-5V55.7h-57.7v8.8c0 20.3-16.6 36.9-36.9 36.9-20.3 0-36.9-16.6-36.9-36.9v-8.8H90.3c-2.8 0-5-2.2-5-5s2.2-5 5-5h28.2c2.8 0 5 2.2 5 5v13.8c0 14.8 12.1 26.9 26.9 26.9 14.8 0 26.9-12.1 26.9-26.9V50.7c0-2.8 2.2-5 5-5H250c2.8 0 5 2.2 5 5v62.7h8.8c20.3 0 36.9 16.6 36.9 36.9s-16.6 36.9-36.9 36.9H255V250c0 2.8-2.2 5-5 5z"/><path class="st1" d="M50.7 187.3H36.9C16.6 187.3 0 170.7 0 150.4s16.6-36.9 36.9-36.9h8.8V86.7c0-2.8 2.2-5 5-5s5 2.2 5 5v31.8c0 2.8-2.2 5-5 5H36.9c-14.8 0-26.9 12.1-26.9 26.9 0 14.8 12.1 26.9 26.9 26.9h13.8c2.8 0 5 2.2 5 5 0 2.7-2.2 5-5 5z"/><g><path class="st1" d="M449.3 454.3H433c-2.8 0-5-2.2-5-5s2.2-5 5-5h11.3V436c0-2.8 2.2-5 5-5s5 2.2 5 5v13.3c0 2.7-2.3 5-5 5zM409.8 454.3h-28.2c-2.8 0-5-2.2-5-5v-13.8c0-14.8-12.1-26.9-26.9-26.9s-26.9 12.1-26.9 26.9v13.8c0 2.8-2.2 5-5 5H250c-2.8 0-5-2.2-5-5v-62.7h-8.8c-20.3 0-36.9-16.6-36.9-36.9s16.6-36.9 36.9-36.9h8.8V250c0-2.8 2.2-5 5-5h67.7c2.8 0 5 2.2 5 5v13.8c0 14.8 12.1 26.9 26.9 26.9s26.9-12.1 26.9-26.9V250c0-2.8 2.2-5 5-5h67.7c2.8 0 5 2.2 5 5v30c0 2.8-2.2 5-5 5s-5-2.2-5-5v-25h-57.7v8.8c0 20.3-16.6 36.9-36.9 36.9s-36.9-16.6-36.9-36.9V255H255v62.7c0 2.8-2.2 5-5 5h-13.8c-14.8 0-26.9 12.1-26.9 26.9s12.1 26.9 26.9 26.9H250c2.8 0 5 2.2 5 5v62.7h57.7v-8.8c0-20.3 16.6-36.9 36.9-36.9s36.9 16.6 36.9 36.9v8.8h23.2c2.8 0 5 2.2 5 5 .1 2.8-2.2 5.1-4.9 5.1z"/><path class="st1" d="M449.3 418.3c-2.8 0-5-2.2-5-5v-31.8c0-2.8 2.2-5 5-5h13.8c14.8 0 26.9-12.1 26.9-26.9s-12.1-26.9-26.9-26.9h-13.8c-2.8 0-5-2.2-5-5s2.2-5 5-5h13.8c20.3 0 36.9 16.6 36.9 36.9s-16.6 36.9-36.9 36.9h-8.8v26.8c0 2.8-2.3 5-5 5z"/></g><g><path class="st1" d="M349.6 300.7c-20.3 0-36.9-16.6-36.9-36.9V255H250c-2.8 0-5-2.2-5-5v-67.7c0-2.8 2.2-5 5-5h13.8c14.8 0 26.9-12.1 26.9-26.9 0-14.8-12.1-26.9-26.9-26.9H250c-2.8 0-5-2.2-5-5V50.7c0-2.8 2.2-5 5-5h62.7v-8.8c0-20.3 16.6-36.9 36.9-36.9s36.9 16.6 36.9 36.9v8.8h62.7c2.8 0 5 2.2 5 5v67.7c0 2.8-2.2 5-5 5h-13.8c-14.8 0-26.9 12.1-26.9 26.9 0 14.8 12.1 26.9 26.9 26.9h13.8c2.8 0 5 2.2 5 5V250c0 2.8-2.2 5-5 5h-62.7v8.8c0 20.4-16.5 36.9-36.9 36.9zM255 245h62.7c2.8 0 5 2.2 5 5v13.8c0 14.8 12.1 26.9 26.9 26.9s26.9-12.1 26.9-26.9V250c0-2.8 2.2-5 5-5h62.7v-57.7h-8.8c-20.3 0-36.9-16.6-36.9-36.9s16.6-36.9 36.9-36.9h8.8V55.7h-62.7c-2.8 0-5-2.2-5-5V36.9c0-14.8-12.1-26.9-26.9-26.9s-26.9 12.1-26.9 26.9v13.8c0 2.8-2.2 5-5 5H255v57.7h8.8c20.3 0 36.9 16.6 36.9 36.9s-16.6 36.9-36.9 36.9H255V245z"/></g><g><path class="st1" d="M150.4 500c-20.3 0-36.9-16.6-36.9-36.9v-8.8H50.7c-2.8 0-5-2.2-5-5v-67.7c0-2.8 2.2-5 5-5h13.8c14.8 0 26.9-12.1 26.9-26.9s-12.1-26.9-26.9-26.9H50.7c-2.8 0-5-2.2-5-5V250c0-2.8 2.2-5 5-5h62.7v-8.8c0-20.3 16.6-36.9 36.9-36.9s36.9 16.6 36.9 36.9v8.8H250c2.8 0 5 2.2 5 5v67.7c0 2.8-2.2 5-5 5h-13.8c-14.8 0-26.9 12.1-26.9 26.9s12.1 26.9 26.9 26.9H250c2.8 0 5 2.2 5 5v67.7c0 2.8-2.2 5-5 5h-62.7v8.8c0 20.4-16.6 37-36.9 37zm-94.7-55.7h62.7c2.8 0 5 2.2 5 5v13.8c0 14.8 12.1 26.9 26.9 26.9 14.8 0 26.9-12.1 26.9-26.9v-13.8c0-2.8 2.2-5 5-5H245v-57.7h-8.8c-20.3 0-36.9-16.6-36.9-36.9s16.6-36.9 36.9-36.9h8.8V255h-62.7c-2.8 0-5-2.2-5-5v-13.8c0-14.8-12.1-26.9-26.9-26.9-14.8 0-26.9 12.1-26.9 26.9V250c0 2.8-2.2 5-5 5H55.7v57.7h8.8c20.3 0 36.9 16.6 36.9 36.9s-16.6 36.9-36.9 36.9h-8.8v57.8z"/></g></svg>